<svg width="580" height="650" viewBox="0 0 580 650" fill="none" xmlns="http://www.w3.org/2000/svg">
<path d="M0 649.011V0H579.815L0 649.011Z" fill="#0022CE"/>
<path d="M116.307 169.896H131.473L134.837 158.308C135.285 156.718 135.509 155.505 135.509 154.669C135.509 153.854 135.234 153.232 134.684 152.804C134.133 152.376 132.808 152.091 130.709 151.948L131.045 150.817H151.654L151.317 151.948C149.299 151.948 147.771 152.376 146.731 153.232C145.691 154.088 144.805 155.78 144.071 158.308L136.366 184.848C135.856 186.581 135.601 187.824 135.601 188.578C135.601 189.333 135.876 189.903 136.427 190.291C137.14 190.821 138.435 191.106 140.31 191.147L140.004 192.278H119.793L120.252 191.147C122.209 191.147 123.646 190.77 124.563 190.016C125.501 189.241 126.357 187.518 127.131 184.848L130.709 172.495H115.604L112.057 184.848C111.548 186.54 111.293 187.794 111.293 188.609C111.293 189.343 111.599 189.944 112.21 190.413C112.842 190.861 114.075 191.106 115.91 191.147L115.604 192.278H95.6683L96.0047 191.147C97.9615 191.147 99.3884 190.77 100.285 190.016C101.203 189.241 102.049 187.518 102.823 184.848L110.528 158.308C110.977 156.779 111.201 155.576 111.201 154.7C111.201 153.864 110.926 153.232 110.376 152.804C109.846 152.376 108.561 152.091 106.523 151.948L106.859 150.817H127.131L126.673 151.948C124.797 151.948 123.381 152.356 122.423 153.171C121.465 153.966 120.588 155.678 119.793 158.308L116.307 169.896ZM167.003 163.934C168.613 163.934 170.122 164.311 171.528 165.065C172.955 165.799 174.025 166.828 174.739 168.153C175.473 169.478 175.84 170.946 175.84 172.556C175.84 175.859 174.912 179.161 173.057 182.463C171.223 185.765 168.797 188.375 165.78 190.291C162.763 192.186 159.726 193.134 156.668 193.134C153.896 193.134 151.745 192.309 150.217 190.658C148.708 189.007 147.954 186.988 147.954 184.604C147.954 181.77 148.515 179.12 149.636 176.654C150.777 174.167 152.214 172.006 153.947 170.171C155.7 168.316 157.708 166.818 159.97 165.677C162.233 164.515 164.577 163.934 167.003 163.934ZM165.749 165.554C164.669 165.554 163.772 165.87 163.059 166.502C161.632 167.786 160.021 170.793 158.228 175.522C156.434 180.231 155.537 184.481 155.537 188.273C155.537 189.21 155.822 189.985 156.393 190.596C156.964 191.208 157.636 191.514 158.411 191.514C159.206 191.514 159.909 191.269 160.521 190.78C161.418 190.046 162.519 188.405 163.823 185.857C165.128 183.289 166.198 180.466 167.034 177.387C167.869 174.289 168.287 171.456 168.287 168.887C168.287 167.827 168.032 167.012 167.523 166.441C167.013 165.85 166.422 165.554 165.749 165.554ZM194.369 163.934L190.455 177.082C193.085 173.046 195.001 170.324 196.204 168.918C197.977 166.859 199.434 165.514 200.576 164.882C201.738 164.25 202.9 163.934 204.062 163.934C205.387 163.934 206.345 164.331 206.936 165.126C207.527 165.921 207.823 166.798 207.823 167.756C207.823 168.755 207.547 170.222 206.997 172.159L205.621 177.082C208.271 173.005 210.177 170.294 211.339 168.948C213.133 166.869 214.692 165.463 216.017 164.729C216.934 164.199 217.913 163.934 218.952 163.934C220.033 163.934 220.93 164.301 221.643 165.035C222.377 165.748 222.744 166.686 222.744 167.848C222.744 169.152 222.438 170.844 221.827 172.923L218.433 184.328C217.923 186.02 217.668 187.111 217.668 187.6C217.668 187.763 217.729 187.916 217.852 188.059C217.994 188.201 218.147 188.273 218.31 188.273C218.534 188.273 218.728 188.201 218.891 188.059C219.625 187.468 220.4 186.601 221.215 185.46C221.398 185.215 221.674 184.838 222.041 184.328L223.08 185.001C221.674 187.631 220.124 189.557 218.433 190.78C216.761 192.003 215.212 192.615 213.785 192.615C212.542 192.615 211.543 192.278 210.788 191.606C210.034 190.912 209.657 190.107 209.657 189.19C209.657 188.313 209.912 186.988 210.422 185.215L213.877 173.29C214.346 171.639 214.58 170.61 214.58 170.202C214.58 170.059 214.509 169.927 214.366 169.805C214.223 169.662 214.081 169.591 213.938 169.591C213.673 169.591 213.408 169.652 213.143 169.774C212.756 169.978 212.154 170.508 211.339 171.364C210.544 172.22 209.392 173.759 207.884 175.981C206.375 178.182 205.325 179.905 204.734 181.148C204.164 182.392 203.593 184.002 203.022 185.979L201.157 192.278H193.421L199.139 172.312C199.445 171.231 199.598 170.487 199.598 170.08C199.598 169.937 199.526 169.805 199.383 169.682C199.261 169.56 199.129 169.499 198.986 169.499C198.232 169.499 197.039 170.487 195.409 172.465C192.922 175.522 190.659 179.202 188.621 183.503L186.144 192.278H178.347L184.095 172.618C184.666 170.681 184.951 169.305 184.951 168.49C184.951 168.164 184.87 167.888 184.707 167.664C184.544 167.42 184.279 167.236 183.912 167.114C183.545 166.971 182.842 166.9 181.802 166.9L182.108 165.738L192.534 163.934H194.369ZM236.259 180.812C236.075 182.137 235.983 183.228 235.983 184.084C235.983 185.613 236.422 186.836 237.298 187.753C238.195 188.67 239.388 189.129 240.876 189.129C242.303 189.129 243.729 188.782 245.156 188.089C246.604 187.396 248.275 186.183 250.171 184.451L251.088 185.276C248.744 188.11 246.461 190.128 244.239 191.33C242.017 192.533 239.561 193.134 236.87 193.134C233.466 193.134 231.112 192.319 229.807 190.688C228.502 189.057 227.85 187.172 227.85 185.032C227.85 181.689 228.818 178.346 230.755 175.003C232.712 171.66 235.362 168.979 238.705 166.961C242.068 164.943 245.442 163.934 248.826 163.934C250.538 163.934 251.832 164.342 252.709 165.157C253.585 165.972 254.024 167.002 254.024 168.245C254.024 169.733 253.595 171.18 252.739 172.587C251.557 174.503 250.069 176.052 248.275 177.235C246.481 178.397 244.473 179.283 242.252 179.895C240.764 180.302 238.766 180.608 236.259 180.812ZM236.534 179.222C238.328 178.957 239.714 178.6 240.692 178.152C241.691 177.683 242.659 176.949 243.597 175.95C244.555 174.931 245.381 173.657 246.074 172.128C246.767 170.579 247.113 169.132 247.113 167.786C247.113 167.216 246.95 166.767 246.624 166.441C246.318 166.115 245.921 165.952 245.432 165.952C244.453 165.952 243.352 166.635 242.129 168.001C239.887 170.487 238.022 174.228 236.534 179.222Z" fill="white"/>
</svg>
