<svg width="955" height="665" viewBox="0 0 955 665" fill="none" xmlns="http://www.w3.org/2000/svg">
<path d="M485.565 326.892L0 664.521H954.428V0H0L485.565 326.892Z" fill="#1CBE00"/>
<path d="M669.787 256.848L672.933 286.166L693.223 256.848H708.165L707.787 258.012C705.732 258.012 704.17 258.452 703.1 259.333C702.031 260.214 701.118 261.954 700.363 264.555L692.499 291.859C691.996 293.579 691.744 294.858 691.744 295.697C691.744 296.473 692.059 297.102 692.688 297.585C693.317 298.046 694.554 298.298 696.4 298.34L696.117 299.504H674.82L675.198 298.34C677.484 298.34 679.172 297.91 680.262 297.05C681.353 296.169 682.276 294.439 683.031 291.859L691.052 264.209L666.642 299.504H665.352L661.514 263.517L653.367 291.859C653.031 293.013 652.863 293.978 652.863 294.754C652.863 295.802 653.22 296.651 653.933 297.302C654.667 297.931 655.904 298.277 657.645 298.34L657.33 299.504H643.238L643.521 298.34C645.219 298.277 646.52 297.92 647.421 297.27C649.015 296.096 650.169 294.292 650.882 291.859L660.099 260.34C659.218 259.375 658.421 258.746 657.708 258.452C657.016 258.159 655.841 258.012 654.185 258.012L654.562 256.848H669.787ZM733.582 270.783L727.479 291.702L726.85 294.25C726.787 294.565 726.756 294.795 726.756 294.942C726.756 295.194 726.84 295.414 727.008 295.603C727.196 295.792 727.385 295.886 727.574 295.886C728.014 295.886 728.622 295.55 729.398 294.879C729.713 294.607 730.468 293.642 731.663 291.985L732.764 292.552C731.275 295.278 729.681 297.27 727.983 298.528C726.305 299.766 724.491 300.384 722.541 300.384C721.345 300.384 720.433 300.08 719.804 299.472C719.175 298.843 718.86 298.057 718.86 297.113C718.86 296.295 719.196 294.775 719.867 292.552L720.622 290.004C718.189 294.177 715.851 297.134 713.607 298.874C712.307 299.881 710.923 300.384 709.455 300.384C707.525 300.384 706.131 299.598 705.271 298.025C704.411 296.431 703.981 294.638 703.981 292.646C703.981 289.689 704.883 286.302 706.686 282.485C708.49 278.648 710.86 275.565 713.796 273.237C716.207 271.308 718.472 270.343 720.59 270.343C721.765 270.343 722.708 270.689 723.421 271.381C724.134 272.052 724.659 273.289 724.994 275.093L726.127 271.224L733.582 270.783ZM723.516 276.76C723.516 275.061 723.254 273.835 722.729 273.08C722.352 272.555 721.838 272.293 721.188 272.293C720.538 272.293 719.867 272.608 719.175 273.237C717.77 274.537 716.249 277.18 714.614 281.164C712.999 285.128 712.191 288.557 712.191 291.451C712.191 292.562 712.37 293.369 712.726 293.873C713.104 294.355 713.513 294.596 713.953 294.596C714.897 294.596 715.851 294.051 716.815 292.96C718.2 291.409 719.447 289.511 720.559 287.267C722.53 283.324 723.516 279.822 723.516 276.76ZM738.835 272.104L749.248 270.343H751.135L749.72 275.47C751.922 273.457 753.725 272.104 755.13 271.412C756.535 270.699 757.93 270.343 759.314 270.343C761.285 270.343 762.806 271.108 763.875 272.639C764.945 274.149 765.479 276.005 765.479 278.207C765.479 284.226 763.393 289.563 759.22 294.219C755.529 298.329 751.502 300.384 747.14 300.384C746.364 300.384 745.704 300.311 745.158 300.164C744.613 300.017 743.848 299.692 742.862 299.189L741.226 304.851C740.639 306.906 740.345 308.469 740.345 309.538C740.345 310.209 740.576 310.734 741.037 311.111C741.499 311.51 742.579 311.845 744.277 312.118L743.994 313.282H727.07L727.385 312.118C728.727 312.076 729.849 311.646 730.751 310.828C731.632 310.01 732.46 308.249 733.236 305.543L740.912 279.088C741.478 277.117 741.761 275.722 741.761 274.904C741.761 274.548 741.677 274.254 741.509 274.023C741.341 273.772 741.09 273.593 740.754 273.489C740.419 273.384 739.664 273.331 738.489 273.331L738.835 272.104ZM743.743 296.263C744.372 297.291 744.938 297.983 745.441 298.34C745.945 298.675 746.532 298.843 747.203 298.843C747.874 298.843 748.524 298.665 749.153 298.308C749.803 297.931 750.6 297.186 751.544 296.075C752.488 294.963 753.389 293.537 754.249 291.797C755.13 290.056 755.833 288.085 756.357 285.883C756.881 283.66 757.143 281.542 757.143 279.528C757.143 277.914 756.85 276.739 756.263 276.005C755.696 275.271 755.004 274.904 754.186 274.904C753.452 274.904 752.76 275.093 752.11 275.47C751.167 276.016 750.055 277.033 748.776 278.522L743.743 296.263ZM611.246 302.873L608.1 316.431H606.873C606.726 312.74 605.814 309.992 604.137 308.189C602.48 306.364 600.309 305.452 597.625 305.452C594.731 305.452 591.847 306.689 588.974 309.164C586.101 311.639 583.669 315.424 581.676 320.52C580.061 324.651 579.254 328.73 579.254 332.757C579.254 336.364 580.135 339.122 581.896 341.03C583.679 342.917 586.112 343.861 589.194 343.861C591.69 343.861 593.965 343.316 596.021 342.225C598.076 341.135 600.152 339.363 602.249 336.909H603.759C601.159 340.81 598.527 343.547 595.863 345.119C593.221 346.692 589.981 347.479 586.143 347.479C581.005 347.479 576.863 345.927 573.718 342.823C570.593 339.698 569.031 335.63 569.031 330.618C569.031 325.92 570.278 321.443 572.774 317.186C575.269 312.907 578.856 309.458 583.532 306.836C588.23 304.194 592.896 302.873 597.531 302.873C599.292 302.873 601.484 303.25 604.105 304.005C605.447 304.383 606.38 304.571 606.905 304.571C607.953 304.571 609.012 304.005 610.082 302.873H611.246ZM638.645 317.783L632.542 338.702L631.913 341.25C631.85 341.565 631.819 341.795 631.819 341.942C631.819 342.194 631.903 342.414 632.07 342.603C632.259 342.792 632.448 342.886 632.637 342.886C633.077 342.886 633.685 342.55 634.461 341.879C634.776 341.607 635.531 340.642 636.726 338.985L637.827 339.552C636.338 342.278 634.744 344.27 633.046 345.528C631.368 346.766 629.554 347.384 627.603 347.384C626.408 347.384 625.496 347.08 624.867 346.472C624.238 345.843 623.923 345.057 623.923 344.113C623.923 343.295 624.259 341.775 624.93 339.552L625.685 337.004C623.252 341.177 620.914 344.134 618.67 345.874C617.369 346.881 615.985 347.384 614.517 347.384C612.588 347.384 611.193 346.598 610.334 345.025C609.474 343.431 609.044 341.638 609.044 339.646C609.044 336.689 609.946 333.302 611.749 329.485C613.553 325.648 615.922 322.565 618.858 320.237C621.27 318.308 623.535 317.343 625.653 317.343C626.828 317.343 627.771 317.689 628.484 318.381C629.197 319.052 629.722 320.289 630.057 322.093L631.19 318.224L638.645 317.783ZM628.579 323.76C628.579 322.061 628.316 320.835 627.792 320.08C627.415 319.555 626.901 319.293 626.251 319.293C625.601 319.293 624.93 319.608 624.238 320.237C622.832 321.537 621.312 324.18 619.676 328.164C618.061 332.128 617.254 335.557 617.254 338.451C617.254 339.562 617.432 340.369 617.789 340.873C618.166 341.355 618.575 341.596 619.016 341.596C619.959 341.596 620.914 341.051 621.878 339.96C623.262 338.409 624.51 336.511 625.622 334.267C627.593 330.324 628.579 326.822 628.579 323.76ZM658.463 309.667L655.946 318.224H660.067L658.966 321.841H654.908L649.655 340.086C649.319 341.219 649.151 342.079 649.151 342.666C649.151 342.938 649.246 343.18 649.435 343.389C649.623 343.578 649.833 343.672 650.064 343.672C650.42 343.672 650.787 343.526 651.165 343.232C652.129 342.498 653.251 341.219 654.531 339.394L655.632 340.086C654.185 342.603 652.591 344.448 650.85 345.623C649.11 346.797 647.4 347.384 645.723 347.384C644.297 347.384 643.185 347.028 642.388 346.315C641.612 345.581 641.224 344.658 641.224 343.547C641.224 342.33 641.497 340.768 642.042 338.859L647.012 321.841H642.734L643.363 319.513C646.048 318.528 648.313 317.374 650.158 316.053C652.004 314.732 654.227 312.603 656.827 309.667H658.463ZM667.994 334.707C667.805 336.07 667.711 337.192 667.711 338.073C667.711 339.646 668.162 340.904 669.064 341.848C669.986 342.792 671.213 343.263 672.744 343.263C674.212 343.263 675.68 342.907 677.148 342.194C678.637 341.481 680.357 340.233 682.307 338.451L683.251 339.3C680.839 342.215 678.49 344.291 676.204 345.528C673.919 346.766 671.392 347.384 668.623 347.384C665.121 347.384 662.699 346.545 661.357 344.868C660.015 343.19 659.344 341.25 659.344 339.048C659.344 335.609 660.34 332.17 662.332 328.73C664.345 325.291 667.071 322.533 670.511 320.457C673.971 318.381 677.442 317.343 680.923 317.343C682.685 317.343 684.016 317.762 684.918 318.601C685.82 319.44 686.271 320.499 686.271 321.778C686.271 323.309 685.83 324.798 684.95 326.245C683.733 328.217 682.202 329.81 680.357 331.027C678.511 332.222 676.446 333.134 674.16 333.763C672.629 334.183 670.574 334.497 667.994 334.707ZM668.277 333.071C670.123 332.799 671.549 332.432 672.555 331.97C673.583 331.488 674.579 330.733 675.544 329.706C676.53 328.657 677.379 327.346 678.092 325.773C678.805 324.18 679.161 322.691 679.161 321.306C679.161 320.719 678.994 320.258 678.658 319.922C678.344 319.587 677.935 319.419 677.431 319.419C676.425 319.419 675.292 320.122 674.034 321.527C671.727 324.085 669.808 327.933 668.277 333.071ZM711.468 319.262H719.835L718.829 322.722H714.488C715.159 323.959 715.494 325.134 715.494 326.245C715.494 328.154 714.97 329.915 713.921 331.53C712.894 333.145 711.363 334.435 709.329 335.399C707.315 336.364 705.072 336.846 702.597 336.846C701.947 336.846 701.223 336.804 700.426 336.72C699.65 336.616 698.801 336.479 697.878 336.311C696.494 337.024 695.624 337.591 695.267 338.01C695.016 338.304 694.89 338.608 694.89 338.922C694.89 339.3 695.047 339.625 695.362 339.898C695.907 340.38 696.714 340.736 697.784 340.967C702.062 341.89 704.883 342.634 706.246 343.201C708.112 343.976 709.517 344.973 710.461 346.189C711.426 347.405 711.908 348.873 711.908 350.593C711.908 353.214 710.702 355.5 708.291 357.451C705.879 359.422 702.146 360.408 697.092 360.408C691.996 360.408 688.242 359.569 685.83 357.891C684.09 356.675 683.219 355.228 683.219 353.55C683.219 352.271 683.796 351.086 684.95 349.995C686.082 348.905 688.525 347.94 692.279 347.101C691 346.388 690.14 345.738 689.7 345.151C689.091 344.354 688.787 343.526 688.787 342.666C688.787 341.261 689.343 340.023 690.455 338.954C691.587 337.884 693.474 336.825 696.117 335.777C694.062 334.959 692.573 333.91 691.65 332.631C690.748 331.331 690.297 329.821 690.297 328.101C690.297 326.277 690.842 324.547 691.933 322.911C693.044 321.254 694.67 319.912 696.809 318.884C698.969 317.857 701.443 317.343 704.233 317.343C706.015 317.343 707.599 317.542 708.983 317.941C709.696 318.15 710.524 318.591 711.468 319.262ZM704.893 318.884C703.866 318.884 702.995 319.22 702.282 319.891C701.15 320.919 700.154 322.638 699.294 325.05C698.455 327.462 698.036 329.747 698.036 331.907C698.036 332.935 698.329 333.753 698.916 334.361C699.525 334.948 700.269 335.242 701.15 335.242C702.01 335.242 702.754 334.948 703.383 334.361C704.579 333.208 705.617 331.373 706.498 328.856C707.378 326.319 707.819 324.022 707.819 321.967C707.819 321.044 707.536 320.3 706.969 319.734C706.403 319.167 705.711 318.884 704.893 318.884ZM694.041 347.825C692.048 348.601 690.685 349.44 689.951 350.341C689.238 351.243 688.882 352.218 688.882 353.267C688.882 354.63 689.595 355.857 691.021 356.947C692.468 358.059 694.764 358.614 697.91 358.614C700.531 358.614 702.429 358.132 703.604 357.167C704.778 356.224 705.365 355.112 705.365 353.833C705.365 352.701 704.82 351.778 703.729 351.065C702.66 350.352 700.594 349.607 697.532 348.831C696.106 348.454 694.942 348.118 694.041 347.825ZM739.936 317.343C741.593 317.343 743.145 317.731 744.592 318.507C746.06 319.262 747.161 320.321 747.895 321.684C748.65 323.047 749.027 324.557 749.027 326.214C749.027 329.611 748.073 333.008 746.165 336.406C744.277 339.803 741.782 342.488 738.678 344.459C735.574 346.409 732.45 347.384 729.304 347.384C726.452 347.384 724.239 346.535 722.666 344.836C721.115 343.138 720.339 341.061 720.339 338.608C720.339 335.693 720.915 332.967 722.069 330.429C723.243 327.871 724.722 325.648 726.504 323.76C728.308 321.852 730.373 320.31 732.701 319.136C735.029 317.941 737.441 317.343 739.936 317.343ZM738.647 319.01C737.535 319.01 736.612 319.335 735.878 319.985C734.41 321.306 732.754 324.4 730.908 329.265C729.063 334.109 728.14 338.482 728.14 342.383C728.14 343.347 728.434 344.144 729.021 344.773C729.608 345.403 730.3 345.717 731.097 345.717C731.915 345.717 732.638 345.465 733.267 344.962C734.19 344.207 735.323 342.519 736.665 339.898C738.007 337.255 739.108 334.351 739.968 331.184C740.828 327.996 741.258 325.081 741.258 322.439C741.258 321.348 740.995 320.51 740.471 319.922C739.947 319.314 739.339 319.01 738.647 319.01ZM766.234 317.343L761.484 335.022C765.385 326.403 768.321 321.097 770.292 319.104C771.446 317.93 772.662 317.343 773.941 317.343C774.822 317.343 775.535 317.668 776.08 318.318C776.626 318.947 776.898 319.849 776.898 321.023C776.898 323.058 776.406 324.767 775.42 326.151C774.791 327.032 774.088 327.472 773.312 327.472C772.473 327.472 771.844 327.084 771.425 326.308C771.005 325.532 770.712 325.081 770.544 324.955C770.376 324.809 770.198 324.735 770.009 324.735C769.8 324.735 769.579 324.798 769.349 324.924C768.887 325.176 768.279 325.794 767.524 326.78C766.79 327.745 765.878 329.37 764.787 331.656C763.697 333.942 762.848 335.882 762.239 337.475C761.631 339.048 760.782 342.058 759.691 346.504H752.079L757.269 325.648C757.647 324.096 757.835 323.068 757.835 322.565C757.835 321.999 757.731 321.558 757.521 321.244C757.332 320.929 757.059 320.698 756.703 320.552C756.367 320.405 755.654 320.331 754.564 320.331L754.847 319.419L764.347 317.343H766.234ZM790.551 302.873C791.851 302.873 792.941 303.324 793.822 304.225C794.724 305.127 795.175 306.218 795.175 307.497C795.175 308.776 794.724 309.867 793.822 310.768C792.92 311.67 791.83 312.121 790.551 312.121C789.292 312.121 788.212 311.67 787.311 310.768C786.409 309.867 785.958 308.776 785.958 307.497C785.958 306.218 786.398 305.127 787.279 304.225C788.181 303.324 789.271 302.873 790.551 302.873ZM792.501 317.343L786.052 339.709C785.696 340.988 785.518 341.827 785.518 342.225C785.518 342.456 785.612 342.676 785.801 342.886C785.989 343.075 786.189 343.169 786.398 343.169C786.755 343.169 787.111 343.012 787.468 342.697C788.412 341.921 789.544 340.516 790.865 338.482L791.935 339.111C788.768 344.627 785.402 347.384 781.837 347.384C780.474 347.384 779.383 347.007 778.566 346.252C777.769 345.476 777.37 344.501 777.37 343.326C777.37 342.55 777.548 341.565 777.905 340.369L782.277 325.333C782.697 323.886 782.907 322.795 782.907 322.061C782.907 321.6 782.707 321.191 782.309 320.835C781.91 320.478 781.365 320.3 780.673 320.3C780.359 320.3 779.981 320.31 779.541 320.331L779.95 319.073L790.614 317.343H792.501ZM804.077 334.707C803.888 336.07 803.794 337.192 803.794 338.073C803.794 339.646 804.245 340.904 805.147 341.848C806.069 342.792 807.296 343.263 808.827 343.263C810.295 343.263 811.763 342.907 813.231 342.194C814.72 341.481 816.44 340.233 818.39 338.451L819.334 339.3C816.922 342.215 814.573 344.291 812.287 345.528C810.002 346.766 807.475 347.384 804.706 347.384C801.204 347.384 798.782 346.545 797.44 344.868C796.098 343.19 795.426 341.25 795.426 339.048C795.426 335.609 796.423 332.17 798.415 328.73C800.428 325.291 803.154 322.533 806.594 320.457C810.054 318.381 813.525 317.343 817.006 317.343C818.768 317.343 820.099 317.762 821.001 318.601C821.903 319.44 822.354 320.499 822.354 321.778C822.354 323.309 821.913 324.798 821.032 326.245C819.816 328.217 818.285 329.81 816.44 331.027C814.594 332.222 812.529 333.134 810.243 333.763C808.712 334.183 806.657 334.497 804.077 334.707ZM804.36 333.071C806.206 332.799 807.632 332.432 808.638 331.97C809.666 331.488 810.662 330.733 811.627 329.706C812.612 328.657 813.462 327.346 814.175 325.773C814.888 324.18 815.244 322.691 815.244 321.306C815.244 320.719 815.077 320.258 814.741 319.922C814.427 319.587 814.018 319.419 813.514 319.419C812.508 319.419 811.375 320.122 810.117 321.527C807.81 324.085 805.891 327.933 804.36 333.071ZM846.607 317.343L845.223 327.063H844.059C843.891 324.547 843.115 322.565 841.731 321.118C840.368 319.671 838.9 318.947 837.327 318.947C836.363 318.947 835.566 319.23 834.936 319.797C834.307 320.363 833.993 321.044 833.993 321.841C833.993 322.512 834.129 323.141 834.402 323.729C834.674 324.316 835.283 325.113 836.226 326.119C839.54 329.685 841.553 332.138 842.266 333.48C842.979 334.823 843.336 336.259 843.336 337.79C843.336 339.447 842.916 341.02 842.077 342.509C841.238 343.976 839.98 345.161 838.302 346.063C836.646 346.944 834.916 347.384 833.112 347.384C831.896 347.384 830.396 347.143 828.614 346.661C827.439 346.325 826.558 346.158 825.971 346.158C825.447 346.158 825.038 346.241 824.744 346.409C824.451 346.556 824.126 346.881 823.769 347.384H822.605L824.147 336.909H825.153C825.887 339.447 826.569 341.261 827.198 342.351C827.848 343.421 828.708 344.281 829.778 344.931C830.847 345.56 831.875 345.874 832.86 345.874C834.014 345.874 834.968 345.518 835.723 344.805C836.478 344.071 836.855 343.201 836.855 342.194C836.855 341.208 836.604 340.254 836.1 339.331C835.618 338.409 834.486 336.972 832.703 335.022C830.249 332.358 828.635 330.303 827.859 328.856C827.313 327.808 827.041 326.612 827.041 325.27C827.041 323.005 827.859 321.118 829.494 319.608C831.151 318.098 833.469 317.343 836.446 317.343C837.747 317.343 839.34 317.574 841.228 318.035C842.172 318.266 842.927 318.381 843.493 318.381C844.311 318.381 844.971 318.035 845.475 317.343H846.607Z" fill="white"/>
</svg>
