<svg width="502" height="671" viewBox="0 0 502 671" fill="none" xmlns="http://www.w3.org/2000/svg">
<path d="M501.075 0H0L501.075 670.486V0Z" fill="#8588FF"/>
<path d="M383.027 201.069C391.007 197.876 397.871 192.981 403.617 186.384C406.49 183.192 407.927 179.414 407.927 175.051C407.927 172.923 407.607 171.167 406.969 169.784C406.756 169.039 405.426 167.283 402.979 164.517C400.638 161.75 399.148 159.728 398.509 158.451C397.658 156.642 397.232 154.78 397.232 152.865C397.232 148.502 398.829 144.671 402.021 141.373C405.32 138.074 409.204 136.424 413.673 136.424C418.036 136.424 421.76 138.18 424.846 141.692C428.038 145.097 429.634 149.619 429.634 155.259C429.634 161.644 427.985 168.135 424.686 174.732C421.387 181.329 416.493 187.288 410.002 192.609C405.532 196.333 397.711 201.175 386.538 207.134L383.027 201.069ZM309.763 201.228C320.511 195.376 327.374 190.534 330.354 186.703C333.333 182.872 334.823 179.148 334.823 175.53C334.823 173.402 334.45 171.54 333.706 169.944C333.386 169.092 332.003 167.283 329.556 164.517C327.215 161.75 325.778 159.835 325.246 158.771C324.501 157.068 324.129 155.259 324.129 153.344C324.129 148.768 325.725 144.831 328.917 141.532C332.109 138.233 335.887 136.584 340.25 136.584C344.825 136.584 348.656 138.287 351.742 141.692C354.934 144.99 356.531 149.566 356.531 155.419C356.531 176.381 342.006 193.567 312.956 206.974L309.763 201.228Z" fill="white"/>
</svg>
